<svg width="32" height="32" viewBox="0 0 200 200" fill="none" xmlns="http://www.w3.org/2000/svg">
  <!-- Coin base with radial gradient for realistic gold -->
  <defs>
    <radialGradient id="goldGradient" cx="50%" cy="50%" r="50%">
      <stop offset="0%" style="stop-color:#FFF8B0;stop-opacity:1"/>
      <stop offset="50%" style="stop-color:#FFC700;stop-opacity:1"/>
      <stop offset="100%" style="stop-color:#B8860B;stop-opacity:1"/>
    </radialGradient>
    <radialGradient id="coinShine" cx="30%" cy="30%" r="60%">
      <stop offset="0%" style="stop-color:#FFFFFF;stop-opacity:0.6"/>
      <stop offset="50%" style="stop-color:#FFFFFF;stop-opacity:0.2"/>
      <stop offset="100%" style="stop-color:#FFFFFF;stop-opacity:0"/>
    </radialGradient>
    <radialGradient id="skullShadow" cx="50%" cy="50%" r="50%">
      <stop offset="0%" style="stop-color:#000000;stop-opacity:0.1"/>
      <stop offset="100%" style="stop-color:#000000;stop-opacity:0.4"/>
    </radialGradient>
  </defs>

  <!-- Coin base -->
  <circle cx="100" cy="100" r="80" fill="url(#goldGradient)" stroke="#B8860B" stroke-width="5"/>
  <circle cx="100" cy="100" r="75" fill="url(#coinShine)" opacity="0.4"/>

  <!-- Decorative rim engraving -->
  <circle cx="100" cy="100" r="78" stroke="#D4AF37" stroke-width="2" stroke-dasharray="4 4"/>
  <circle cx="100" cy="100" r="74" stroke="#FFD700" stroke-width="2" stroke-dasharray="2 4"/>

  <!-- Skull -->
  <ellipse cx="100" cy="100" rx="30" ry="35" fill="#FFFFFF" stroke="#000000" stroke-width="2"/>
  <!-- Eyes -->
  <ellipse cx="90" cy="95" rx="5" ry="7" fill="#000000"/>
  <ellipse cx="110" cy="95" rx="5" ry="7" fill="#000000"/>
  <!-- Nose -->
  <polygon points="100,105 95,115 105,115" fill="#000000"/>
  <!-- Mouth -->
  <path d="M85 120 Q100 130 115 120" stroke="#000000" stroke-width="2" fill="none"/>
  
  <!-- Crossbones behind skull -->
  <line x1="70" y1="70" x2="130" y2="130" stroke="#FFFFFF" stroke-width="8" stroke-linecap="round"/>
  <line x1="130" y1="70" x2="70" y2="130" stroke="#FFFFFF" stroke-width="8" stroke-linecap="round"/>
  <!-- Bone ends -->
  <circle cx="70" cy="70" r="5" fill="#FFFFFF"/>
  <circle cx="130" cy="130" r="5" fill="#FFFFFF"/>
  <circle cx="70" cy="130" r="5" fill="#FFFFFF"/>
  <circle cx="130" cy="70" r="5" fill="#FFFFFF"/>
  
  <!-- Skull shadow for depth -->
  <ellipse cx="100" cy="100" rx="30" ry="35" fill="url(#skullShadow)" opacity="0.3"/>

  <!-- Coin surface reflections -->
  <circle cx="70" cy="70" r="8" fill="#FFFFFF" opacity="0.2"/>
  <circle cx="130" cy="90" r="5" fill="#FFFFFF" opacity="0.15"/>
  <circle cx="100" cy="140" r="6" fill="#FFFFFF" opacity="0.2"/>
</svg>